# xmcd
#
# Track frame offsets:
#	187
#	12415
#	23972
#	32027
#	43637
#	54357
#	71447
#	85562
#	96197
#	101850
# Disc length: 1478 seconds
# Revision: 4
# Processed by: cddbd v1.5.1PL2 Copyright (c) Steve Scherf et al.
#
# Submitted via: libkcddb 0.31
#
DISCID=7705c40a
DTITLE=Various Country Artists - Country Gold - Volume 7
DYEAR=1900
DGENRE=Unknown
TTITLE0=Ernest Tubb And Loretta Lynn - Thanks A Lot
TTITLE1=Willie Nelson - I'm Gonna Lose A Lot Of Teardrops
TTITLE2=George Jones - Jambalaya (On The Bayou)
TTITLE3=Roger Miller - Walkin' In The Sunshine
TTITLE4=Kitty Wells - Lonely Street
TTITLE5=Janie Frickie - Blowin' In The Wind
TTITLE6=George Jones - Cold, Cold Heart
TTITLE7=Roger Miller - When Two Worlds Collide
TTITLE8=Willie Nelson - The Ghost
TTITLE9=Kitty Wells - I'll Repossess My Heart
EXTD=
EXTT0=
EXTT1=
EXTT2=
EXTT3=
EXTT4=
EXTT5=
EXTT6=
EXTT7=
EXTT8=
EXTT9=
PLAYORDER=
